<svg width="89" height="40" viewBox="0 0 89 40" fill="none" xmlns="http://www.w3.org/2000/svg">
<path d="M1.47125 27.48C1.39125 27.48 1.35125 27.44 1.35125 27.36C1.35125 27.2533 1.41792 27.1333 1.55125 27C1.71125 26.84 1.84458 26.7733 1.95125 26.8C2.59125 26.8 3.16458 26.8133 3.67125 26.84C4.17792 26.84 4.61792 26.84 4.99125 26.84C5.95125 26.84 6.65792 26.7467 7.11125 26.56C7.56458 26.3467 7.92458 25.92 8.19125 25.28C8.45792 24.64 8.77792 23.6533 9.15125 22.32C9.33792 21.68 9.52458 21.04 9.71125 20.4C9.89792 19.76 10.0446 19.12 10.1513 18.48C10.2046 18.32 10.2446 18.0267 10.2713 17.6C10.3246 17.1733 10.3379 16.8667 10.3113 16.68C10.2313 15.4267 10.0579 14.2533 9.79125 13.16C9.55125 12.0667 9.32458 11.1733 9.11125 10.48C8.89792 9.65333 8.65792 8.92 8.39125 8.28C8.12458 7.64 7.85792 7.08 7.59125 6.6C6.95125 5.42666 6.24458 4.62666 5.47125 4.2C4.72458 3.77333 3.83125 3.56 2.79125 3.56C2.44458 3.56 2.07125 3.6 1.67125 3.68C1.29792 3.73333 0.884584 3.76 0.43125 3.76H0.35125C0.244583 3.76 0.19125 3.72 0.19125 3.64C0.19125 3.53333 0.257917 3.41333 0.39125 3.28C0.524583 3.14667 0.657917 3.08 0.79125 3.08C2.12458 3.02667 3.43125 2.93333 4.71125 2.8C6.01792 2.64 7.32458 2.50667 8.63125 2.4C8.71125 2.4 8.79125 2.4 8.87125 2.4C8.97792 2.37333 9.08458 2.36 9.19125 2.36C9.48458 2.36 9.80458 2.48 10.1513 2.72C10.5246 2.93333 10.8846 3.4 11.2313 4.12C11.6046 4.84 11.9646 5.94667 12.3113 7.44C12.6579 8.93333 12.9513 10.96 13.1913 13.52C13.2446 13.9467 13.3113 14.24 13.3913 14.4C13.4979 14.56 13.6046 14.64 13.7113 14.64C13.8446 14.64 13.9779 14.5733 14.1113 14.44C14.2713 14.28 14.4046 14.1467 14.5113 14.04C15.1246 13.3467 15.8046 12.4267 16.5513 11.28C17.2979 10.1067 17.9646 8.98667 18.5513 7.92C18.9246 7.22667 19.1913 6.64 19.3513 6.16C19.5379 5.65333 19.6313 5.22667 19.6313 4.88C19.6313 4.24 19.4179 3.81333 18.9913 3.6C18.5646 3.38667 18.0579 3.28 17.4713 3.28C16.9113 3.28 16.3913 3.28 15.9113 3.28H15.7913C15.7113 3.28 15.6713 3.25333 15.6713 3.2C15.6713 3.09333 15.7646 2.96 15.9513 2.8C16.1379 2.64 16.2846 2.58667 16.3913 2.64C17.9646 2.66667 19.1779 2.70667 20.0313 2.76C20.8846 2.78666 21.6179 2.8 22.2313 2.8C23.0046 2.8 23.8846 2.78666 24.8713 2.76C25.8846 2.70667 26.8713 2.68 27.8313 2.68C27.9379 2.68 27.9913 2.72 27.9913 2.8C27.9913 2.90666 27.9246 3.04 27.7913 3.2C27.6579 3.36 27.5246 3.42667 27.3913 3.4C27.2313 3.4 26.8579 3.44 26.2713 3.52C25.7113 3.57333 25.0446 3.81333 24.2713 4.24C23.4979 4.64 22.6979 5.37333 21.8713 6.44C21.2579 7.24 20.4979 8.22667 19.5913 9.4C18.6846 10.5733 17.7646 11.8133 16.8313 13.12C15.9246 14.4 15.1113 15.6267 14.3913 16.8C14.2313 17.0667 14.0846 17.3467 13.9513 17.64C13.8446 17.9067 13.7513 18.2 13.6713 18.52C13.3246 19.96 13.0713 21.2 12.9113 22.24C12.7779 23.28 12.6846 24.1467 12.6313 24.84C12.5513 25.48 12.6846 25.9333 13.0313 26.2C13.4046 26.4667 13.6979 26.6267 13.9113 26.68C14.2046 26.7067 14.6579 26.7333 15.2713 26.76C15.9113 26.7867 16.5379 26.8133 17.1513 26.84C17.7646 26.84 18.1646 26.84 18.3513 26.84H18.3913C18.4979 26.84 18.5513 26.88 18.5513 26.96C18.5513 27.0667 18.4846 27.1867 18.3513 27.32C18.2179 27.4267 18.0713 27.48 17.9113 27.48C16.8713 27.48 15.6446 27.4533 14.2313 27.4C12.8446 27.3467 11.5246 27.32 10.2713 27.32C9.95125 27.32 9.64458 27.32 9.35125 27.32C9.05792 27.32 8.77792 27.3333 8.51125 27.36C8.11125 27.36 7.52458 27.3733 6.75125 27.4C5.97792 27.4267 5.12458 27.4533 4.19125 27.48C3.25792 27.48 2.36458 27.48 1.51125 27.48H1.47125ZM29.0491 9.28C28.7291 9.28 28.4091 9.24 28.0891 9.16C27.7957 9.05333 27.4624 8.90667 27.0891 8.72L28.7691 6.48C28.9824 6.58666 29.2757 6.64 29.6491 6.64C30.2357 6.64 30.9024 6.52 31.6491 6.28C32.3957 6.01333 33.0757 5.66667 33.6891 5.24C33.9024 4.89333 34.1424 4.72 34.4091 4.72C34.5691 4.72 34.6491 4.8 34.6491 4.96C34.6491 5.06667 34.5691 5.24 34.4091 5.48C34.2491 5.72 33.9424 6.04 33.4891 6.44C33.0624 6.81333 32.5957 7.21333 32.0891 7.64C31.6091 8.04 31.1957 8.38667 30.8491 8.68C30.5024 8.94667 30.3291 9.08 30.3291 9.08C30.0891 9.13333 29.8624 9.18667 29.6491 9.24C29.4624 9.26667 29.2624 9.28 29.0491 9.28ZM22.7691 28.4C22.7424 28.2667 22.7291 28.12 22.7291 27.96C22.7291 27.7733 22.7291 27.5867 22.7291 27.4C22.7291 26.5733 22.7824 25.5867 22.8891 24.44C23.0224 23.2933 23.1957 22.1067 23.4091 20.88C23.6491 19.6533 23.9024 18.5333 24.1691 17.52C24.7024 15.7067 25.2891 14.32 25.9291 13.36C26.5691 12.4 27.4891 11.7067 28.6891 11.28C28.8224 11.2267 29.0624 11.1467 29.4091 11.04C29.7824 10.9067 30.1691 10.76 30.5691 10.6C30.9691 10.44 31.3157 10.3067 31.6091 10.2C31.9024 10.0933 32.0491 10.04 32.0491 10.04L32.2091 10.4L31.1291 10.88C30.6491 11.0933 30.1557 11.5333 29.6491 12.2C29.1424 12.84 28.6757 13.6 28.2491 14.48C27.8224 15.3333 27.4891 16.2 27.2491 17.08C26.9824 18.1467 26.7291 19.2667 26.4891 20.44C26.2491 21.5867 26.0757 22.6667 25.9691 23.68C26.8224 22.4267 27.8091 21.16 28.9291 19.88C30.0757 18.5733 31.1957 17.56 32.2891 16.84L32.5691 17.24C31.9024 17.64 31.2091 18.28 30.4891 19.16C29.7957 20.04 29.1157 20.9867 28.4491 22C27.8091 23.0133 27.2624 23.96 26.8091 24.84C26.3557 25.72 26.0624 26.3867 25.9291 26.84L22.7691 28.4ZM33.9244 28.4C34.1644 26.88 34.4577 25.2933 34.8044 23.64C35.1777 21.96 35.4977 20.36 35.7644 18.84C35.9777 17.6933 36.151 16.6267 36.2844 15.64C36.4444 14.6533 36.5244 13.8267 36.5244 13.16C36.5244 12.9467 36.5244 12.7467 36.5244 12.56C36.5244 12.3733 36.4977 12.2133 36.4444 12.08C36.4444 12.08 36.1777 12.16 35.6444 12.32C35.1377 12.48 34.4844 12.8 33.6844 13.28L33.9244 12.48C34.431 12.1867 35.0177 11.84 35.6844 11.44C36.3777 11.04 37.0577 10.64 37.7244 10.24C38.391 9.81333 38.9377 9.44 39.3644 9.12C39.4977 9.30667 39.5777 9.56 39.6044 9.88C39.6577 10.2 39.6844 10.5733 39.6844 11C39.6844 11.72 39.6177 12.56 39.4844 13.52C39.3777 14.4533 39.231 15.4667 39.0444 16.56C38.9377 17.3067 38.8044 18.0533 38.6444 18.8C38.4844 19.5467 38.3377 20.3067 38.2044 21.08C38.6844 20.2 39.2977 19.28 40.0444 18.32C40.791 17.3333 41.6044 16.3733 42.4844 15.44C43.3644 14.5067 44.2577 13.6533 45.1644 12.88C46.0977 12.1067 46.9777 11.48 47.8044 11C48.4444 10.6533 49.191 10.32 50.0444 10C50.8977 9.68 51.6577 9.38667 52.3244 9.12L52.5244 9.48L51.9244 9.72C51.2844 9.98667 50.6977 10.52 50.1644 11.32C49.631 12.0933 49.1377 13.0267 48.6844 14.12C48.2577 15.2133 47.871 16.36 47.5244 17.56C47.2044 18.76 46.9377 19.9067 46.7244 21C46.511 22.0667 46.351 22.96 46.2444 23.68C47.0977 22.4267 48.0977 21.1467 49.2444 19.84C50.391 18.5333 51.511 17.52 52.6044 16.8L52.9244 17.2C52.4444 17.4933 51.8444 18.0267 51.1244 18.8C50.431 19.5733 49.7244 20.4533 49.0044 21.44C48.2844 22.4267 47.6577 23.4 47.1244 24.36C46.591 25.32 46.2844 26.1333 46.2044 26.8L43.0444 28.4C43.0177 28.24 43.0044 28.08 43.0044 27.92C43.0044 27.7333 43.0044 27.5467 43.0044 27.36C43.0044 26.4 43.0977 25.28 43.2844 24C43.4977 22.6933 43.751 21.36 44.0444 20C44.3644 18.64 44.711 17.3467 45.0844 16.12C45.4844 14.8933 45.8577 13.8667 46.2044 13.04C45.671 13.4667 45.031 14.08 44.2844 14.88C43.5644 15.6533 42.8044 16.5467 42.0044 17.56C41.231 18.5733 40.4844 19.64 39.7644 20.76C39.071 21.8533 38.4844 22.9467 38.0044 24.04C37.5244 25.1067 37.2177 26.08 37.0844 26.96L33.9244 28.4ZM49.9784 39.52C50.1918 38.8533 50.4718 37.8667 50.8184 36.56C51.1651 35.28 51.5384 33.8 51.9384 32.12C52.3651 30.4667 52.7918 28.7333 53.2184 26.92C53.6451 25.08 54.0318 23.2933 54.3784 21.56C54.7251 19.8 55.0051 18.2 55.2184 16.76C55.4318 15.32 55.5384 14.16 55.5384 13.28C55.5384 13.0667 55.5251 12.88 55.4984 12.72C55.4984 12.5333 55.4851 12.3733 55.4584 12.24L54.1784 12.88C53.9651 12.9867 53.8584 13.04 53.8584 13.04C53.7251 13.0933 53.6584 13.0533 53.6584 12.92C53.6584 12.8133 53.7118 12.68 53.8184 12.52C53.9251 12.36 54.0184 12.2667 54.0984 12.24C54.8718 11.7867 55.6051 11.3067 56.2984 10.8C57.0184 10.2667 57.7118 9.76 58.3784 9.28C58.5918 9.62667 58.6984 10.28 58.6984 11.24C58.6984 11.9333 58.6451 12.7733 58.5384 13.76C58.4318 14.7467 58.2984 15.8133 58.1384 16.96C58.4318 16.5067 58.7518 16.08 59.0984 15.68C59.4451 15.28 59.7918 14.8933 60.1384 14.52C60.5918 14.0133 61.1251 13.5467 61.7384 13.12C62.3784 12.6667 62.8851 12.2267 63.2584 11.8C63.6318 11.3733 63.9251 10.96 64.1384 10.56C64.3784 10.16 64.5118 9.76 64.5384 9.36L68.0184 7.72C68.0718 8.70667 68.0318 9.90667 67.8984 11.32C67.7918 12.7333 67.5784 14.2267 67.2584 15.8C66.9651 17.3467 66.5384 18.84 65.9784 20.28C65.4451 21.72 64.7518 22.9733 63.8984 24.04C63.0718 25.1067 62.0851 25.84 60.9384 26.24H60.8984C60.5518 26.5067 60.2184 26.7733 59.8984 27.04C59.5784 27.28 59.1384 27.48 58.5784 27.64C57.8318 27.8533 56.9918 27.92 56.0584 27.84C55.7118 29.4133 55.3518 30.8933 54.9784 32.28C54.6318 33.6667 54.2984 34.8667 53.9784 35.88C53.6584 36.8933 53.3784 37.64 53.1384 38.12L49.9784 39.52ZM59.0584 26.04C59.6718 26.04 60.1518 25.8667 60.4984 25.52C60.8718 25.1733 61.1784 24.72 61.4184 24.16C61.6851 23.6 61.9518 23.0133 62.2184 22.4C62.6718 21.36 63.0584 20.2533 63.3784 19.08C63.6984 17.9067 63.9384 16.7733 64.0984 15.68C64.2584 14.56 64.3251 13.6 64.2984 12.8C64.2984 12.7467 64.2318 12.7467 64.0984 12.8C63.9918 12.8267 63.8584 12.88 63.6984 12.96C63.5651 13.04 63.4051 13.1467 63.2184 13.28C62.8718 13.52 62.3918 13.84 61.7784 14.24C61.1918 14.6133 60.6718 15.0533 60.2184 15.56C59.7918 16.0133 59.3651 16.52 58.9384 17.08C58.5384 17.6133 58.1784 18.16 57.8584 18.72C57.6718 19.7867 57.4718 20.88 57.2584 22C57.0451 23.0933 56.8318 24.2 56.6184 25.32C56.8851 25.4533 57.1651 25.5867 57.4584 25.72C57.7518 25.8267 58.0584 25.9067 58.3784 25.96C58.5118 25.9867 58.6318 26.0133 58.7384 26.04C58.8451 26.04 58.9518 26.04 59.0584 26.04ZM87.1941 6.48L86.7141 6.04C86.8741 5.4 86.9541 4.82667 86.9541 4.32C86.9541 3.49333 86.7541 2.85333 86.3541 2.4C85.9541 1.94667 85.3941 1.72 84.6741 1.72C84.0074 1.72 83.2474 1.93333 82.3941 2.36L82.1941 2C83.0741 1.49333 83.8341 1.12 84.4741 0.879999C85.1407 0.639999 85.7807 0.479998 86.3941 0.399998C87.0341 0.293332 87.7274 0.226666 88.4741 0.199998L88.5941 0.319999C88.6207 0.373331 88.6341 0.479998 88.6341 0.639999C88.6341 0.986666 88.5541 1.4 88.3941 1.88C88.2607 2.36 88.1141 2.85333 87.9541 3.36C87.8474 3.65333 87.7407 3.94667 87.6341 4.24C87.5541 4.50666 87.4741 4.77333 87.3941 5.04C87.2341 5.57333 87.1674 6.05333 87.1941 6.48ZM68.1941 28.4C68.2474 27.3333 68.3407 26.04 68.4741 24.52C68.6341 22.9733 68.8741 21.3067 69.1941 19.52C69.5141 17.7333 69.9674 15.9333 70.5541 14.12C71.1674 12.28 71.9407 10.5333 72.8741 8.88C73.8341 7.2 75.0074 5.70667 76.3941 4.4C77.8074 3.09333 79.4874 2.09333 81.4341 1.4L84.6341 0.24L84.7141 0.559998C82.3941 1.54666 80.4874 2.74667 78.9941 4.16C77.5007 5.54667 76.3141 7.08 75.4341 8.76C74.5541 10.4133 73.8741 12.1467 73.3941 13.96C72.9141 15.7733 72.5407 17.5867 72.2741 19.4C72.2474 19.5067 72.2074 19.8 72.1541 20.28C72.1007 20.76 72.0341 21.3333 71.9541 22C72.3541 21.2267 72.8741 20.3467 73.5141 19.36C74.1541 18.3467 74.8474 17.3467 75.5941 16.36C76.3674 15.3467 77.1407 14.4533 77.9141 13.68C78.6874 12.9067 79.3941 12.3867 80.0341 12.12C80.5141 11.7733 81.0607 11.4933 81.6741 11.28C81.8074 11.2267 82.0474 11.1467 82.3941 11.04C82.7674 10.9067 83.1541 10.76 83.5541 10.6C83.9541 10.44 84.3007 10.3067 84.5941 10.2C84.8874 10.0933 85.0341 10.04 85.0341 10.04L85.2341 10.4L84.1141 10.88C83.6341 11.0667 83.1407 11.4933 82.6341 12.16C82.1274 12.8 81.6607 13.56 81.2341 14.44C80.8074 15.32 80.4741 16.2 80.2341 17.08C79.9674 18.1467 79.7141 19.2667 79.4741 20.44C79.2341 21.5867 79.0607 22.6667 78.9541 23.68C79.8074 22.4267 80.7941 21.16 81.9141 19.88C83.0607 18.5733 84.1807 17.56 85.2741 16.84L85.5941 17.24C84.9274 17.64 84.2341 18.28 83.5141 19.16C82.7941 20.04 82.1007 20.9867 81.4341 22C80.7941 23.0133 80.2474 23.96 79.7941 24.84C79.3407 25.72 79.0474 26.3867 78.9141 26.84L75.7541 28.4C75.7274 28.2667 75.7141 28.1067 75.7141 27.92C75.7141 27.7333 75.7141 27.5333 75.7141 27.32C75.7141 26.52 75.7674 25.5467 75.8741 24.4C76.0074 23.2533 76.1807 22.08 76.3941 20.88C76.6074 19.6533 76.8474 18.5333 77.1141 17.52C77.2741 17.0133 77.4207 16.5467 77.5541 16.12C77.7141 15.6667 77.8741 15.2533 78.0341 14.88C77.2341 15.4933 76.4474 16.32 75.6741 17.36C74.9007 18.4 74.1807 19.52 73.5141 20.72C72.8741 21.8933 72.3541 23.0267 71.9541 24.12C71.5807 25.1867 71.3941 26.08 71.3941 26.8V26.84C70.9407 27.0267 70.4074 27.28 69.7941 27.6C69.1807 27.92 68.6474 28.1867 68.1941 28.4Z" fill="black"/>
</svg>
